G75*
%MOIN*%
%OFA0B0*%
%FSLAX25Y25*%
%IPPOS*%
%LPD*%
%AMOC8*
5,1,8,0,0,1.08239X$1,22.5*
%
%ADD10R,0.06299X0.06299*%
%ADD11C,0.06299*%
%ADD12C,0.07087*%
%ADD13C,0.06000*%
%ADD14C,0.05512*%
%ADD15C,0.06299*%
%ADD16OC8,0.05200*%
%ADD17C,0.02000*%
D10*
X0051256Y0054633D03*
X0067256Y0127633D03*
D11*
X0057256Y0127633D03*
X0128256Y0126633D03*
X0138256Y0126633D03*
X0136256Y0064633D03*
X0146256Y0064633D03*
X0082256Y0062633D03*
X0072256Y0062633D03*
X0051256Y0064633D03*
X0028256Y0057633D03*
X0018256Y0057633D03*
X0020256Y0043633D03*
X0030256Y0043633D03*
D12*
X0082256Y0079090D02*
X0082256Y0086176D01*
X0092256Y0086176D02*
X0092256Y0079090D01*
X0102256Y0079090D02*
X0102256Y0086176D01*
X0112256Y0086176D02*
X0112256Y0079090D01*
X0122256Y0079090D02*
X0122256Y0086176D01*
X0132256Y0086176D02*
X0132256Y0079090D01*
X0142256Y0079090D02*
X0142256Y0086176D01*
X0142256Y0109090D02*
X0142256Y0116176D01*
X0132256Y0116176D02*
X0132256Y0109090D01*
X0122256Y0109090D02*
X0122256Y0116176D01*
X0112256Y0116176D02*
X0112256Y0109090D01*
X0102256Y0109090D02*
X0102256Y0116176D01*
X0092256Y0116176D02*
X0092256Y0109090D01*
X0082256Y0109090D02*
X0082256Y0116176D01*
D13*
X0163256Y0110633D03*
X0163256Y0130633D03*
X0182256Y0130633D03*
X0212256Y0130633D03*
X0123256Y0060633D03*
X0136256Y0052633D03*
X0166256Y0052633D03*
X0103256Y0060633D03*
D14*
X0192256Y0062948D03*
X0192256Y0102318D03*
D15*
X0065406Y0097633D02*
X0059106Y0097633D01*
X0059106Y0087633D02*
X0065406Y0087633D01*
X0065406Y0107633D02*
X0059106Y0107633D01*
D16*
X0034256Y0119633D03*
X0024256Y0119633D03*
X0024256Y0079633D03*
X0034256Y0079633D03*
D17*
X0020756Y0042133D02*
X0025256Y0037633D01*
X0057256Y0037633D01*
X0082256Y0062633D01*
X0082256Y0068390D01*
X0087799Y0073934D01*
X0087799Y0078176D01*
X0092256Y0082633D01*
X0096713Y0078176D01*
X0096713Y0060105D01*
X0104185Y0052633D01*
X0136256Y0052633D01*
X0144013Y0052633D01*
X0149013Y0047633D01*
X0183667Y0047633D01*
X0212256Y0076222D01*
X0212256Y0130633D01*
X0182256Y0130633D02*
X0165256Y0130633D01*
X0164256Y0131633D01*
X0163256Y0130633D01*
X0158256Y0135633D01*
X0137256Y0135633D01*
X0128256Y0126633D01*
X0128256Y0116633D01*
X0132256Y0112633D01*
X0142256Y0112633D02*
X0158185Y0112633D01*
X0161185Y0115633D01*
X0178941Y0115633D01*
X0192256Y0102318D01*
X0163256Y0103633D02*
X0142256Y0082633D01*
X0142256Y0090633D01*
X0137256Y0095633D01*
X0113873Y0095633D01*
X0106713Y0088473D01*
X0106713Y0087090D01*
X0102256Y0082633D01*
X0102256Y0061633D01*
X0103256Y0060633D01*
X0123256Y0060633D02*
X0132256Y0060633D01*
X0136256Y0064633D01*
X0148256Y0052633D01*
X0166256Y0052633D01*
X0146256Y0064633D02*
X0190571Y0064633D01*
X0146256Y0064633D02*
X0132256Y0078633D01*
X0132256Y0082633D01*
X0123256Y0081633D02*
X0122256Y0082633D01*
X0123256Y0081633D02*
X0123256Y0060633D01*
X0102256Y0082633D02*
X0102256Y0101250D01*
X0107799Y0106794D01*
X0112256Y0111250D01*
X0112256Y0112633D01*
X0112256Y0124633D01*
X0109256Y0127633D01*
X0101256Y0127633D01*
X0092256Y0118633D01*
X0092256Y0112633D01*
X0092256Y0128633D01*
X0085256Y0135633D01*
X0063256Y0135633D01*
X0057256Y0129633D01*
X0057256Y0127633D01*
X0042256Y0127633D01*
X0034256Y0119633D01*
X0024256Y0119633D02*
X0015256Y0110633D01*
X0015256Y0060633D01*
X0018256Y0057633D01*
X0028256Y0057633D02*
X0028256Y0051633D01*
X0020756Y0044133D01*
X0020756Y0042133D01*
X0020256Y0043633D02*
X0020756Y0044133D01*
X0030256Y0043633D02*
X0034256Y0047633D01*
X0034256Y0079633D01*
X0032256Y0087633D02*
X0024256Y0079633D01*
X0032256Y0087633D02*
X0062256Y0087633D01*
X0067106Y0092483D01*
X0067539Y0092483D01*
X0082256Y0107201D01*
X0082256Y0112633D01*
X0087799Y0118473D02*
X0073489Y0132783D01*
X0063278Y0132783D01*
X0058128Y0127633D01*
X0057256Y0127633D01*
X0067256Y0127633D02*
X0071256Y0123633D01*
X0071256Y0105633D01*
X0070688Y0105633D01*
X0067539Y0102483D01*
X0067106Y0102483D01*
X0062256Y0097633D01*
X0082256Y0082633D02*
X0082256Y0072633D01*
X0072256Y0062633D01*
X0059256Y0062633D01*
X0051256Y0054633D01*
X0051256Y0064633D02*
X0087799Y0101176D01*
X0087799Y0118473D01*
X0107799Y0108176D02*
X0107799Y0106794D01*
X0138256Y0126633D02*
X0142256Y0122633D01*
X0142256Y0112633D01*
X0163256Y0110633D02*
X0163256Y0103633D01*
M02*
