%
M48
M72
T01C0.02756
T02C0.03150
T03C0.03200
%
T01
X102256Y112633
X192256Y102318
X192256Y62948
T02
X20256Y43633
X30256Y43633
X28256Y57633
X18256Y57633
X51256Y54633
X51256Y64633
X72256Y62633
X82256Y62633
X103256Y60633
X123256Y60633
X136256Y64633
X146256Y64633
X136256Y52633
X166256Y52633
X142256Y82633
X132256Y82633
X122256Y82633
X112256Y82633
X102256Y82633
X92256Y82633
X82256Y82633
X62256Y87633
X62256Y97633
X62256Y107633
X82256Y112633
X92256Y112633
X112256Y112633
X122256Y112633
X132256Y112633
X142256Y112633
X138256Y126633
X128256Y126633
X163256Y130633
X182256Y130633
X163256Y110633
X212256Y130633
X67256Y127633
X57256Y127633
T03
X34256Y119633
X24256Y119633
X24256Y79633
X34256Y79633
M30
