G75*
%MOIN*%
%OFA0B0*%
%FSLAX25Y25*%
%IPPOS*%
%LPD*%
%AMOC8*
5,1,8,0,0,1.08239X$1,22.5*
%
%ADD10R,0.07099X0.07099*%
%ADD11C,0.07099*%
%ADD12C,0.07887*%
%ADD13C,0.06800*%
%ADD14C,0.06312*%
%ADD15C,0.07099*%
%ADD16OC8,0.06000*%
D10*
X0051256Y0054633D03*
X0067256Y0127633D03*
D11*
X0020256Y0043633D03*
X0030256Y0043633D03*
X0028256Y0057633D03*
X0018256Y0057633D03*
X0051256Y0064633D03*
X0072256Y0062633D03*
X0082256Y0062633D03*
X0136256Y0064633D03*
X0146256Y0064633D03*
X0138256Y0126633D03*
X0128256Y0126633D03*
X0057256Y0127633D03*
D12*
X0082256Y0116176D02*
X0082256Y0109090D01*
X0092256Y0109090D02*
X0092256Y0116176D01*
X0102256Y0116176D02*
X0102256Y0109090D01*
X0112256Y0109090D02*
X0112256Y0116176D01*
X0122256Y0116176D02*
X0122256Y0109090D01*
X0132256Y0109090D02*
X0132256Y0116176D01*
X0142256Y0116176D02*
X0142256Y0109090D01*
X0142256Y0086176D02*
X0142256Y0079090D01*
X0132256Y0079090D02*
X0132256Y0086176D01*
X0122256Y0086176D02*
X0122256Y0079090D01*
X0112256Y0079090D02*
X0112256Y0086176D01*
X0102256Y0086176D02*
X0102256Y0079090D01*
X0092256Y0079090D02*
X0092256Y0086176D01*
X0082256Y0086176D02*
X0082256Y0079090D01*
D13*
X0103256Y0060633D03*
X0123256Y0060633D03*
X0136256Y0052633D03*
X0166256Y0052633D03*
X0163256Y0110633D03*
X0163256Y0130633D03*
X0182256Y0130633D03*
X0212256Y0130633D03*
D14*
X0192256Y0102318D03*
X0192256Y0062948D03*
D15*
X0065406Y0087633D02*
X0059106Y0087633D01*
X0059106Y0097633D02*
X0065406Y0097633D01*
X0065406Y0107633D02*
X0059106Y0107633D01*
D16*
X0034256Y0119633D03*
X0024256Y0119633D03*
X0024256Y0079633D03*
X0034256Y0079633D03*
M02*
